<svg width="77" height="77" viewBox="0 0 77 77" fill="none" xmlns="http://www.w3.org/2000/svg">
<circle cx="38.5" cy="38.5" r="38.5" fill="#141414"/>
<path fill-rule="evenodd" clip-rule="evenodd" d="M43.4688 11.1493C43.853 11.3141 44.1707 11.6032 44.3711 11.97C44.5714 12.3369 44.6429 12.7605 44.5739 13.1728L41.2027 33.4H57.6667C58.0133 33.4 58.3531 33.4965 58.648 33.6788C58.9429 33.861 59.1812 34.1218 59.3363 34.4318C59.4913 34.7419 59.5569 35.089 59.5258 35.4343C59.4947 35.7795 59.368 36.1093 59.16 36.3866L36.76 66.2533C36.509 66.5873 36.1532 66.8274 35.7495 66.9353C35.3459 67.0431 34.9178 67.0124 34.5336 66.8481C34.1495 66.6838 33.8316 66.3953 33.6308 66.0289C33.43 65.6625 33.3579 65.2394 33.4261 64.8272L36.7973 44.6H20.3333C19.9867 44.6 19.6469 44.5034 19.352 44.3212C19.0571 44.1389 18.8188 43.8782 18.6637 43.5681C18.5087 43.258 18.4431 42.9109 18.4742 42.5657C18.5054 42.2204 18.632 41.8906 18.84 41.6133L41.24 11.7466C41.4908 11.4117 41.8469 11.1707 42.2511 11.0624C42.6552 10.954 43.0841 10.9846 43.4688 11.1493ZM24.0667 40.8666H39C39.271 40.8668 39.5387 40.9259 39.7845 41.0399C40.0303 41.1539 40.2483 41.32 40.4235 41.5268C40.5986 41.7335 40.7266 41.9759 40.7987 42.2372C40.8707 42.4984 40.885 42.7721 40.8405 43.0394L38.3653 57.8906L53.9333 37.1333H39C38.729 37.1332 38.4614 37.0741 38.2155 36.9601C37.9697 36.8461 37.7517 36.6799 37.5765 36.4732C37.4014 36.2664 37.2734 36.024 37.2013 35.7628C37.1293 35.5016 37.115 35.2278 37.1595 34.9605L39.6347 20.1093L24.0667 40.8666Z" fill="white"/>
</svg>
