<svg width="77" height="77" viewBox="0 0 77 77" fill="none" xmlns="http://www.w3.org/2000/svg">
<circle cx="38.5" cy="38.5" r="38.5" fill="#141414"/>
<path d="M50.25 42.7964L47.2464 45.0678L44.975 42.0643" stroke="white" stroke-width="3.57143" stroke-linecap="round" stroke-linejoin="round"/>
<path d="M47.0786 44.8428C47.9473 43.1731 48.2838 41.2774 48.0429 39.4107C47.8019 37.544 46.9951 35.7959 45.731 34.4014C44.4668 33.007 42.806 32.0331 40.9718 31.6108C39.1376 31.1885 37.2181 31.338 35.4714 32.0392M27.5536 38.5178L30.5536 36.2499L32.825 39.2499" stroke="white" stroke-width="3.57143" stroke-linecap="round" stroke-linejoin="round"/>
<path d="M30.7214 36.475C29.8527 38.1447 29.5162 40.0404 29.7571 41.9071C29.9981 43.7738 30.8049 45.5219 32.069 46.9163C33.3331 48.3108 34.994 49.2847 36.8282 49.707C38.6624 50.1293 40.5819 49.9798 42.3285 49.2785" stroke="white" stroke-width="3.57143" stroke-linecap="round" stroke-linejoin="round"/>
<path d="M62.2143 30.0714C62.2143 29.1242 61.838 28.2158 61.1682 27.546C60.4985 26.8762 59.59 26.5 58.6428 26.5H51.5L46.1428 19.3571H31.8571L26.5 26.5H19.3571C18.4099 26.5 17.5015 26.8762 16.8318 27.546C16.162 28.2158 15.7857 29.1242 15.7857 30.0714V55.0714C15.7857 56.0186 16.162 56.927 16.8318 57.5968C17.5015 58.2666 18.4099 58.6428 19.3571 58.6428H58.6428C59.59 58.6428 60.4985 58.2666 61.1682 57.5968C61.838 56.927 62.2143 56.0186 62.2143 55.0714V30.0714Z" stroke="white" stroke-width="3.57143" stroke-linecap="round" stroke-linejoin="round"/>
</svg>
