<svg width="398" height="228" viewBox="0 0 398 228" fill="none" xmlns="http://www.w3.org/2000/svg">
<path d="M38.875 179.062H15.5V127.062C15.5 117.521 18 109.75 23 103.75C25.875 100.292 29.5208 97.5417 33.9375 95.5C38.3958 93.4583 42.9583 92.4375 47.625 92.4375C56.9167 92.4375 64.75 95.5625 71.125 101.812C77.5 108.062 80.6875 115.729 80.6875 124.812C80.6875 133.646 77.5208 141.271 71.1875 147.688C64.8542 154.104 57.3542 157.312 48.6875 157.312C47.2708 157.312 45.1875 157.167 42.4375 156.875V131.125C44.3542 132.667 46.2708 133.438 48.1875 133.438C50.6042 133.438 52.6667 132.542 54.375 130.75C56.125 128.958 57 126.833 57 124.375C57 121.917 56.1042 119.833 54.3125 118.125C52.5208 116.375 50.375 115.5 47.875 115.5C41.875 115.5 38.875 119.646 38.875 127.938V179.062ZM120.562 92.375C129.396 92.375 136.958 95.5625 143.25 101.938C149.583 108.271 152.75 115.875 152.75 124.75C152.75 133.75 149.542 141.417 143.125 147.75C136.75 154.083 129.042 157.25 120 157.25C110.958 157.25 103.229 154.083 96.8125 147.75C90.3958 141.375 87.1875 133.708 87.1875 124.75C87.1875 115.625 90.3958 107.958 96.8125 101.75C103.229 95.5 111.146 92.375 120.562 92.375ZM119.938 115.438C117.438 115.438 115.312 116.354 113.562 118.188C111.812 119.979 110.938 122.188 110.938 124.812C110.938 127.396 111.812 129.604 113.562 131.438C115.354 133.271 117.479 134.188 119.938 134.188C122.438 134.188 124.562 133.271 126.312 131.438C128.104 129.604 129 127.396 129 124.812C129 122.188 128.125 119.979 126.375 118.188C124.625 116.354 122.479 115.438 119.938 115.438ZM185.875 70.6875V156H162.5V70.6875H185.875ZM234.25 132.625V156.812C232.333 157.146 230.583 157.312 229 157.312C219.625 157.312 211.812 154.229 205.562 148.062C199.312 141.896 196.188 134.167 196.188 124.875C196.188 115.833 199.333 108.167 205.625 101.875C211.958 95.5833 219.646 92.4375 228.688 92.4375C238.771 92.4375 246.708 95.3958 252.5 101.312C258.333 107.188 261.25 115.229 261.25 125.438V156H237.875V127.125C237.875 123.833 237.062 121.208 235.438 119.25C233.854 117.292 231.708 116.312 229 116.312C226.542 116.312 224.417 117.208 222.625 119C220.833 120.792 219.938 122.917 219.938 125.375C219.938 127.958 220.75 130.083 222.375 131.75C224 133.417 226.062 134.25 228.562 134.25C230.604 134.25 232.5 133.708 234.25 132.625ZM309.062 93.0625V118.062C307.438 117.146 305.958 116.688 304.625 116.688C300.375 116.688 298.25 119.938 298.25 126.438V156H274.875V121.938C274.875 112.938 277.333 105.771 282.25 100.438C287.167 95.0625 293.729 92.375 301.938 92.375C303.771 92.375 306.146 92.6042 309.062 93.0625ZM387.062 94.5625V119.188C383.771 119.188 381.5 119.812 380.25 121.062C379.042 122.271 378.271 124.688 377.938 128.312C376.854 140.354 372.188 148.854 363.938 153.812C359.562 156.396 353.354 157.688 345.312 157.688H342.062V132.938H343.125C346.875 132.938 349.542 132.167 351.125 130.625C352.75 129.042 353.688 126.292 353.938 122.375C354.271 116 354.854 111.521 355.688 108.938C356.562 106.354 358.312 103.792 360.938 101.25C365.521 96.7917 371.875 94.5625 380 94.5625H387.062Z" fill="black"/>
<rect x="314" y="94" width="24" height="62" fill="black"/>
<path d="M326.5 49L327.856 57.5846C328.814 63.6553 333.893 68.2253 340.031 68.54L388 71L340.031 73.46C333.893 73.7747 328.814 78.3447 327.856 84.4154L326.5 93L325.158 84.4985C324.193 78.3903 319.06 73.8069 312.882 73.5383L254.5 71L312.882 68.4617C319.06 68.1931 324.193 63.6097 325.158 57.5015L326.5 49Z" fill="black"/>
</svg>
