<svg width="159" height="81" viewBox="0 0 159 81" fill="none" xmlns="http://www.w3.org/2000/svg">
<path d="M15.5305 61.2531H6.1922V40.2706C6.1922 36.4207 7.19094 33.2851 9.18843 30.864C10.337 29.4687 11.7935 28.3589 13.5579 27.5351C15.339 26.7112 17.1617 26.2993 19.0261 26.2993C22.7381 26.2993 25.8674 27.5603 28.4142 30.082C30.961 32.6039 32.2344 35.6976 32.2344 39.3627C32.2344 42.9273 30.9694 46.0041 28.4392 48.5934C25.9091 51.1823 22.9128 52.4768 19.4505 52.4768C18.8846 52.4768 18.0523 52.4182 16.9537 52.3004V41.9101C17.7194 42.5323 18.4851 42.8434 19.2508 42.8434C20.2162 42.8434 21.0402 42.4818 21.7227 41.7588C22.4218 41.0357 22.7713 40.1782 22.7713 39.1864C22.7713 38.1946 22.4135 37.3537 21.6977 36.6645C20.9819 35.9583 20.1247 35.6052 19.1259 35.6052C16.7289 35.6052 15.5305 37.2782 15.5305 40.6241V61.2531ZM48.1642 26.2741C51.6934 26.2741 54.7144 27.5603 57.228 30.1329C59.758 32.6883 61.0232 35.7566 61.0232 39.3377C61.0232 42.9693 59.7416 46.063 57.1781 48.6184C54.6313 51.1738 51.5519 52.4517 47.9397 52.4517C44.3274 52.4517 41.2397 51.1738 38.6763 48.6184C36.1129 46.046 34.8312 42.9523 34.8312 39.3377C34.8312 35.6557 36.1129 32.562 38.6763 30.057C41.2397 27.5351 44.4025 26.2741 48.1642 26.2741ZM47.9149 35.5802C46.9162 35.5802 46.0668 35.9498 45.3677 36.6899C44.6686 37.4126 44.3194 38.3039 44.3194 39.3627C44.3194 40.4054 44.6686 41.2963 45.3677 42.0364C46.0836 42.776 46.9326 43.146 47.9149 43.146C48.9137 43.146 49.7622 42.776 50.4613 42.0364C51.1772 41.2963 51.5352 40.4054 51.5352 39.3627C51.5352 38.3039 51.1856 37.4126 50.4865 36.6899C49.7874 35.9498 48.93 35.5802 47.9149 35.5802ZM74.2566 17.523V51.9474H64.9183V17.523H74.2566ZM93.5823 42.5153V52.275C92.8164 52.4098 92.1173 52.4768 91.4849 52.4768C87.7396 52.4768 84.6183 51.2327 82.1215 48.7443C79.6246 46.2563 78.3766 43.1375 78.3766 39.3881C78.3766 35.7396 79.633 32.6463 82.1467 30.1074C84.6767 27.5687 87.748 26.2993 91.3603 26.2993C95.3884 26.2993 98.5592 27.493 100.873 29.8803C103.203 32.2513 104.369 35.4959 104.369 39.6153V51.9474H95.0304V40.296C95.0304 38.9677 94.7057 37.9085 94.0569 37.1184C93.4241 36.3283 92.5667 35.9329 91.4849 35.9329C90.5029 35.9329 89.654 36.2944 88.9381 37.0175C88.2222 37.7406 87.8647 38.5981 87.8647 39.5899C87.8647 40.6322 88.189 41.4896 88.8382 42.1623C89.4874 42.8349 90.3112 43.171 91.3099 43.171C92.1257 43.171 92.8831 42.9523 93.5823 42.5153ZM123.469 26.5515V36.639C122.821 36.2694 122.229 36.0846 121.697 36.0846C119.999 36.0846 119.15 37.396 119.15 40.0188V51.9474H109.812V38.203C109.812 34.5715 110.794 31.6795 112.758 29.5276C114.722 27.3585 117.344 26.2741 120.623 26.2741C121.356 26.2741 122.305 26.3666 123.469 26.5515ZM154.63 27.1568V37.0934C153.316 37.0934 152.408 37.3452 151.909 37.8496C151.426 38.3374 151.118 39.3127 150.985 40.775C150.552 45.6341 148.688 49.0639 145.392 51.0645C143.644 52.1071 141.164 52.6285 137.951 52.6285H136.653V42.6416H137.078C138.576 42.6416 139.641 42.3305 140.274 41.7083C140.923 41.0696 141.297 39.9599 141.397 38.3794C141.53 35.807 141.763 33.9997 142.096 32.9574C142.446 31.9148 143.145 30.881 144.194 29.8552C146.025 28.0563 148.563 27.1568 151.809 27.1568H154.63Z" fill="white"/>
<path d="M135.03 26.9298H125.442V51.9474H135.03V26.9298Z" fill="white"/>
<path d="M130.436 8.77191L130.978 12.2359C131.36 14.6855 133.389 16.5295 135.842 16.6565L155.005 17.6491L135.842 18.6417C133.389 18.7687 131.36 20.6128 130.978 23.0623L130.436 26.5263L129.9 23.0959C129.514 20.6312 127.464 18.7817 124.996 18.6733L101.672 17.6491L124.996 16.6249C127.464 16.5165 129.514 14.6671 129.9 12.2023L130.436 8.77191Z" fill="white"/>
</svg>
