<svg width="44" height="43" viewBox="0 0 44 43" fill="none" xmlns="http://www.w3.org/2000/svg">
<path d="M22.2528 33.3342L22.0754 33.5116L21.8803 33.3342C13.4561 25.6903 7.8872 20.6358 7.8872 15.5103C7.8872 11.9632 10.5475 9.30291 14.0945 9.30291C16.8258 9.30291 19.4861 11.0764 20.426 13.4884H23.7248C24.6648 11.0764 27.3251 9.30291 30.0563 9.30291C33.6033 9.30291 36.2636 11.9632 36.2636 15.5103C36.2636 20.6358 30.6948 25.6903 22.2528 33.3342ZM30.0563 5.75586C26.9704 5.75586 24.0086 7.19242 22.0754 9.4448C20.1423 7.19242 17.1805 5.75586 14.0945 5.75586C8.63208 5.75586 4.34015 10.0301 4.34015 15.5103C4.34015 22.1965 10.3701 27.6767 19.5038 35.959L22.0754 38.3001L24.647 35.959C33.7807 27.6767 39.8107 22.1965 39.8107 15.5103C39.8107 10.0301 35.5188 5.75586 30.0563 5.75586Z" fill="white"/>
</svg>
