<svg width="51" height="51" viewBox="0 0 51 51" fill="none" xmlns="http://www.w3.org/2000/svg">
<path d="M21.9849 11.0647C23.0374 7.82558 27.6199 7.82558 28.6724 11.0648L30.1775 15.6971C30.6482 17.1457 31.9981 18.1264 33.5213 18.1264H38.3921C41.7979 18.1264 43.214 22.4848 40.4586 24.4867L36.5181 27.3496C35.2858 28.2449 34.7702 29.8318 35.2409 31.2805L36.746 35.9128C37.7985 39.152 34.0911 41.8455 31.3357 39.8436L27.3952 36.9807C26.163 36.0854 24.4943 36.0854 23.2621 36.9807L19.3216 39.8436C16.5662 41.8455 12.8588 39.152 13.9113 35.9128L15.4164 31.2805C15.8871 29.8318 15.3715 28.2449 14.1392 27.3496L10.1987 24.4867C7.44332 22.4848 8.8594 18.1264 12.2653 18.1264H17.136C18.6592 18.1264 20.0091 17.1457 20.4798 15.6971L21.9849 11.0647Z" fill="#FFD600"/>
<path d="M20.5572 28.3981C20.9733 28.3981 21.3106 28.0608 21.3106 27.6448C21.3106 27.2287 20.9733 26.8914 20.5572 26.8914C20.1411 26.8914 19.8038 27.2287 19.8038 27.6448C19.8038 28.0608 20.1411 28.3981 20.5572 28.3981Z" fill="black"/>
<path d="M30.1002 22.8732C30.5163 22.8732 30.8536 22.5359 30.8536 22.1198C30.8536 21.7038 30.5163 21.3665 30.1002 21.3665C29.6841 21.3665 29.3468 21.7038 29.3468 22.1198C29.3468 22.5359 29.6841 22.8732 30.1002 22.8732Z" fill="black"/>
<path d="M23.6101 29.1754C23.4625 28.8948 23.6179 28.5502 23.9259 28.4752L27.3434 27.6417L29.9667 25.298C30.2031 25.0868 30.575 25.154 30.7226 25.4346C30.8267 25.6325 30.7827 25.8758 30.616 26.0248L27.811 28.5308L24.1568 29.4219C23.9396 29.4749 23.7142 29.3733 23.6101 29.1754Z" fill="black"/>
</svg>
