<svg width="39" height="39" viewBox="0 0 39 39" fill="none" xmlns="http://www.w3.org/2000/svg">
<path fill-rule="evenodd" clip-rule="evenodd" d="M17.0625 3.25C14.86 3.25019 12.6894 3.77709 10.732 4.78675C8.77448 5.79641 7.08682 7.25955 5.8098 9.0541C4.53279 10.8486 3.70344 12.9226 3.39095 15.1028C3.07846 17.2831 3.29189 19.5065 4.01344 21.5874C4.73498 23.6684 5.94372 25.5467 7.53881 27.0656C9.13389 28.5844 11.0691 29.6998 13.1829 30.3186C15.2967 30.9374 17.5279 31.0418 19.6902 30.623C21.8526 30.2042 23.8834 29.2743 25.6133 27.911L31.5478 33.8455C31.8543 34.1415 32.2648 34.3053 32.6908 34.3016C33.1169 34.2979 33.5245 34.127 33.8257 33.8257C34.127 33.5244 34.2979 33.1168 34.3016 32.6908C34.3053 32.2647 34.1416 31.8542 33.8455 31.5477L27.911 25.6133C29.5165 23.5765 30.5162 21.1289 30.7956 18.5506C31.075 15.9722 30.6228 13.3673 29.4909 11.0339C28.359 8.70052 26.593 6.73295 24.395 5.35638C22.1971 3.9798 19.656 3.24983 17.0625 3.25ZM6.50005 17.0625C6.50005 14.2612 7.61288 11.5745 9.59373 9.59368C11.5746 7.61283 14.2612 6.5 17.0625 6.5C19.8639 6.5 22.5505 7.61283 24.5314 9.59368C26.5122 11.5745 27.625 14.2612 27.625 17.0625C27.625 19.8638 26.5122 22.5505 24.5314 24.5313C22.5505 26.5122 19.8639 27.625 17.0625 27.625C14.2612 27.625 11.5746 26.5122 9.59373 24.5313C7.61288 22.5505 6.50005 19.8638 6.50005 17.0625Z" fill="white"/>
</svg>
