<svg width="848" height="1307" viewBox="0 0 848 1307" fill="none" xmlns="http://www.w3.org/2000/svg">
<circle cx="424" cy="345" r="962" fill="white" fill-opacity="0.1"/>
<circle cx="425.17" cy="345" r="496.497" fill="white" fill-opacity="0.1"/>
<circle cx="424.585" cy="344.415" r="235.091" fill="white" fill-opacity="0.1"/>
<circle cx="425.17" cy="345" r="82.4571" fill="white" fill-opacity="0.1"/>
<g filter="url(#filter0_d_17_6)">
<path d="M450.413 317.547L433.58 344.48L450.413 371.413L423.48 354.58L396.547 371.413L413.38 344.48L396.547 317.547L423.48 334.38L450.413 317.547Z" fill="white"/>
<path d="M450.413 317.547L433.58 344.48L450.413 371.413L423.48 354.58L396.547 371.413L413.38 344.48L396.547 317.547L423.48 334.38L450.413 317.547Z" fill="white"/>
<path d="M450.413 317.547L433.58 344.48L450.413 371.413L423.48 354.58L396.547 371.413L413.38 344.48L396.547 317.547L423.48 334.38L450.413 317.547Z" fill="#8E67FF"/>
<path d="M424.331 294.122L430.341 320.163C432.405 329.106 439.387 336.089 448.33 338.152L474.371 344.162L448.33 350.171C439.387 352.235 432.405 359.218 430.341 368.16L424.331 394.201L418.322 368.16C416.258 359.218 409.276 352.235 400.333 350.171L374.292 344.162L400.333 338.152C409.276 336.089 416.258 329.106 418.322 320.163L424.331 294.122Z" fill="white"/>
<path d="M424.331 294.122L430.341 320.163C432.405 329.106 439.387 336.089 448.33 338.152L474.371 344.162L448.33 350.171C439.387 352.235 432.405 359.218 430.341 368.16L424.331 394.201L418.322 368.16C416.258 359.218 409.276 352.235 400.333 350.171L374.292 344.162L400.333 338.152C409.276 336.089 416.258 329.106 418.322 320.163L424.331 294.122Z" fill="white"/>
<path d="M424.331 294.122L430.341 320.163C432.405 329.106 439.387 336.089 448.33 338.152L474.371 344.162L448.33 350.171C439.387 352.235 432.405 359.218 430.341 368.16L424.331 394.201L418.322 368.16C416.258 359.218 409.276 352.235 400.333 350.171L374.292 344.162L400.333 338.152C409.276 336.089 416.258 329.106 418.322 320.163L424.331 294.122Z" fill="white"/>
</g>
<circle cx="79.4999" cy="1195.5" r="36.5" fill="#FF0000" fill-opacity="0.1"/>
<circle cx="79.0001" cy="1197" r="32" fill="url(#paint0_linear_17_6)"/>
<ellipse cx="23.3055" cy="23.3572" rx="23.3055" ry="23.3572" transform="matrix(0.739326 0.673347 -0.658767 0.752347 800.036 938.74)" fill="url(#paint1_linear_17_6)"/>
<circle cx="29.9125" cy="29.9125" r="29.9125" transform="matrix(0.745668 0.672828 -0.659376 0.745993 799.447 930)" fill="#CC00FF" fill-opacity="0.1"/>
<circle cx="90.9999" cy="208.82" r="30" fill="#51BB62" fill-opacity="0.1"/>
<path d="M110.36 228.435C112.595 226.191 112.105 221.979 108.953 216.233C110.468 212.595 110.87 208.589 110.11 204.722C109.35 200.855 107.46 197.3 104.68 194.506C101.9 191.712 98.3551 189.805 94.4918 189.025C90.6286 188.245 86.6209 188.627 82.9749 190.124C75.7272 186.106 72.3382 187.1 70.7593 188.686C69.26 190.184 69.0616 192.525 69.8141 195.334C70.3768 197.273 71.1656 199.14 72.1642 200.895C70.6511 204.532 70.2495 208.537 71.0102 212.402C71.7708 216.268 73.6596 219.821 76.4381 222.614C79.2166 225.407 82.7602 227.315 86.6218 228.095C90.4833 228.876 94.4896 228.496 98.135 227.002C101.415 228.812 104.34 229.818 106.613 229.817C108.187 229.817 109.447 229.352 110.36 228.435ZM106.615 226.495C101.716 226.493 92.5025 219.815 85.9333 213.218C74.4642 201.71 71.4961 192.656 73.1082 191.033C73.5332 190.605 74.5257 190.513 75.8355 190.779C77.07 191.059 78.2684 191.48 79.4074 192.032C78.5177 192.634 77.6783 193.307 76.8975 194.045C76.774 194.158 76.6878 194.307 76.6503 194.47C76.6127 194.634 76.6256 194.805 76.6873 194.961C77.1362 196.071 77.6633 197.148 78.2644 198.183C80.5191 202.144 84.0772 206.652 88.2839 210.876C92.4907 215.101 96.9613 218.657 100.899 220.924C101.925 221.523 102.991 222.05 104.089 222.501C104.245 222.563 104.416 222.576 104.58 222.539C104.743 222.501 104.891 222.416 105.005 222.292C105.741 221.516 106.414 220.681 107.016 219.797C108.251 222.521 108.922 225.171 108.005 226.09C107.74 226.359 107.271 226.495 106.613 226.495L106.615 226.495Z" fill="url(#paint2_linear_17_6)"/>
<defs>
<filter id="filter0_d_17_6" x="356.692" y="276.522" width="135.279" height="135.279" filterUnits="userSpaceOnUse" color-interpolation-filters="sRGB">
<feFlood flood-opacity="0" result="BackgroundImageFix"/>
<feColorMatrix in="SourceAlpha" type="matrix" values="0 0 0 0 0 0 0 0 0 0 0 0 0 0 0 0 0 0 127 0" result="hardAlpha"/>
<feOffset/>
<feGaussianBlur stdDeviation="8.8"/>
<feComposite in2="hardAlpha" operator="out"/>
<feColorMatrix type="matrix" values="0 0 0 0 1 0 0 0 0 1 0 0 0 0 1 0 0 0 1 0"/>
<feBlend mode="normal" in2="BackgroundImageFix" result="effect1_dropShadow_17_6"/>
<feBlend mode="normal" in="SourceGraphic" in2="effect1_dropShadow_17_6" result="shape"/>
</filter>
<linearGradient id="paint0_linear_17_6" x1="96.5001" y1="1180" x2="79.0001" y2="1229" gradientUnits="userSpaceOnUse">
<stop stop-color="#934545"/>
<stop offset="1" stop-color="#990081"/>
</linearGradient>
<linearGradient id="paint1_linear_17_6" x1="1.80831" y1="26.9864" x2="45.6065" y2="27.1854" gradientUnits="userSpaceOnUse">
<stop stop-color="#5755B9"/>
<stop offset="1" stop-color="#4D1C8B"/>
</linearGradient>
<linearGradient id="paint2_linear_17_6" x1="84.1089" y1="184.486" x2="97.0101" y2="232.633" gradientUnits="userSpaceOnUse">
<stop stop-color="#00B75F"/>
<stop offset="1" stop-color="#F0F896"/>
</linearGradient>
</defs>
</svg>
